<svg xmlns="http://www.w3.org/2000/svg" width="44" height="44" viewBox="0 0 44 44" fill="none" role="img" aria-labelledby="title">
  <title id="title">AgentBro tray running</title>
  <path fill="#111820" d="M7 33 15.6 10.6c1-2.5 4.4-2.5 5.4 0L29.2 33c.7 1.8-.6 3.6-2.5 3.6h-5.1c-1.1 0-2-.7-2.4-1.7l-1.4-3.7h-6.1l-1.4 3.7c-.4 1-1.4 1.7-2.5 1.7H9.5C7.6 36.6 6.3 34.8 7 33Z"/>
  <path fill="#111820" d="M23.1 9.6h7.4c4.3 0 7.2 2.6 7.2 6.3 0 1.9-.8 3.6-2.2 4.7 2.4 1.2 3.8 3.5 3.8 6.4 0 5.5-4 9.1-10.1 9.1h-6.1c-1.4 0-2.5-1.1-2.5-2.5V12.1c0-1.4 1.1-2.5 2.5-2.5Z"/>
  <path fill="#fff" d="M13 24.1h10.2c1.2 0 2 1.3 1.5 2.4-.4.7-1.1 1.2-1.9 1.2H12.6c-1.1 0-1.9-1.1-1.5-2.1.3-.9 1.1-1.5 1.9-1.5ZM24.9 15.1h7.5c1.4 0 2.5 1.1 2.5 2.5s-1.1 2.5-2.5 2.5h-7.5c-1.4 0-2.5-1.1-2.5-2.5s1.1-2.5 2.5-2.5Z"/>
  <path fill="#fff" d="m17.2 20.8 2.6-2.6c1.7-1.7 4.4-1.7 6.1 0l4.8 4.8c1 1 1 2.8 0 3.8l-.7.7c-.9.9-2.3 1-3.3.3l1.3 1.3c.7.7.7 1.9 0 2.7s-1.9.7-2.7 0l-1.2-1.2.6.6c.7.7.7 1.9 0 2.7s-1.9.7-2.7 0L15.1 27c-1-1-1-2.8 0-3.8l2.1-2.4Z"/>
  <path fill="#111820" d="m15.2 20.5 2.2 2.2c1.4 1.4 3.6 1.4 5 0l1.7-1.7c.7-.7 1.9-.7 2.7 0 .7.7.7 1.9 0 2.7L25.1 25c-3 3-7.7 3-10.7 0l-2.2-2.2c-.7-.7-.7-1.9 0-2.7.8-.7 2.2-.3 3 .4Z"/>
  <circle cx="37" cy="7" r="4.5" fill="#18B981"/>
</svg>
